<svg width="813" height="727" viewBox="0 0 813 727" fill="none" xmlns="http://www.w3.org/2000/svg">
<path d="M43.0145 343.98C173.357 180.01 110.599 42.1805 43.0145 0H813V532.901C813 711.129 501.627 744.992 337.492 718.258C173.357 691.524 -107.723 533.606 43.0145 343.98Z" fill="url(#paint0_linear)"/>
<path d="M513.249 541.105C508.128 536.473 505.018 529.155 505.833 522.031C506.649 514.907 511.702 508.359 518.256 506.846C524.81 505.333 532.281 509.521 534.271 516.374C535.367 503.161 536.629 489.394 543.192 478.142C549.134 467.953 559.426 460.663 570.58 459.359C581.734 458.054 593.477 462.98 600.434 472.405C607.39 481.829 609.093 495.53 604.221 506.35C600.632 514.32 594.02 520.252 587.092 525.078C564.705 540.54 537.854 546.828 511.481 542.785L513.249 541.105Z" fill="#108315"/>
<path d="M589.404 463.254C580.2 471.279 571.757 480.254 564.196 490.049C552.364 505.327 542.788 522.455 535.805 540.839C535.293 542.18 537.328 542.764 537.833 541.438C549.26 511.561 567.502 485.227 590.891 464.846C591.942 463.931 590.445 462.346 589.404 463.254Z" fill="white"/>
<path d="M335.766 539.846C342.8 533.484 347.073 523.433 345.952 513.649C344.832 503.864 337.892 494.869 328.89 492.791C319.889 490.714 309.627 496.465 306.893 505.878C305.388 487.73 303.654 468.821 294.641 453.366C286.479 439.372 272.344 429.359 257.024 427.568C241.703 425.776 225.573 432.542 216.019 445.486C206.464 458.431 204.125 477.249 210.817 492.11C215.746 503.057 224.828 511.205 234.344 517.833C264.702 538.98 302.362 547.799 338.196 542.154" fill="#17991C"/>
<path d="M231.169 432.917C243.81 443.939 255.406 456.266 265.791 469.721C276.177 483.161 285.322 497.648 293.095 512.978C297.44 521.578 301.343 530.425 304.787 539.48C305.489 541.322 302.695 542.124 302.001 540.303C295.901 524.338 288.354 509.053 279.468 494.664C270.625 480.328 260.505 466.944 249.248 454.701C242.881 447.779 236.163 441.237 229.125 435.105C227.683 433.847 229.738 431.67 231.169 432.917L231.169 432.917Z" fill="white"/>
<path d="M494.126 543.44H326.31V359.12C326.31 319.904 356.114 288 392.747 288H427.69C464.323 288 494.126 319.904 494.126 359.12V543.44Z" fill="#F2F2F2"/>
<path d="M459.184 543.439H326.31V359.119C326.274 344.093 330.719 329.446 338.998 317.311C339.303 316.866 339.608 316.427 339.922 315.992C343.926 310.369 348.692 305.418 354.061 301.3C354.365 301.064 354.669 300.832 354.978 300.6C359.471 297.271 364.331 294.55 369.448 292.499C369.752 292.376 370.061 292.252 370.371 292.134C374.998 290.366 379.796 289.155 384.674 288.523C384.976 288.479 385.286 288.444 385.597 288.41C390.35 287.865 395.145 287.865 399.898 288.41C400.208 288.444 400.518 288.479 400.824 288.523C405.701 289.155 410.497 290.366 415.123 292.134C415.433 292.252 415.742 292.376 416.047 292.499C421.101 294.525 425.904 297.205 430.349 300.48C430.658 300.707 430.967 300.939 431.271 301.172C434.281 303.471 437.108 306.033 439.723 308.832C441.821 311.076 443.775 313.469 445.574 315.993C445.887 316.427 446.191 316.866 446.496 317.311C454.775 329.445 459.221 344.092 459.184 359.119V543.439Z" fill="#A8C2BE"/>
<path d="M448.379 461C452.442 461 455.736 457.474 455.736 453.125C455.736 448.776 452.442 445.25 448.379 445.25C444.316 445.25 441.023 448.776 441.023 453.125C441.023 457.474 444.316 461 448.379 461Z" fill="#CED2DF"/>
<path d="M480.379 537.919H474.742L472.06 514.645L480.38 514.646L480.379 537.919Z" fill="#FFB8B8"/>
<path d="M470.716 536.195H481.586V543.522H463.871C463.871 542.56 464.048 541.607 464.392 540.718C464.736 539.829 465.24 539.021 465.876 538.341C466.511 537.66 467.266 537.121 468.096 536.753C468.927 536.384 469.817 536.195 470.716 536.195Z" fill="#2F2E41"/>
<path d="M508.425 537.919H502.788L500.106 514.645L508.426 514.646L508.425 537.919Z" fill="#FFB8B8"/>
<path d="M498.762 536.195H509.632V543.522H491.917C491.917 542.56 492.094 541.607 492.438 540.718C492.782 539.829 493.286 539.021 493.922 538.341C494.557 537.66 495.312 537.121 496.142 536.753C496.973 536.384 497.863 536.195 498.762 536.195Z" fill="#2F2E41"/>
<path d="M452.102 454.685C451.697 454.046 451.427 453.319 451.313 452.556C451.198 451.792 451.241 451.012 451.439 450.268C451.636 449.525 451.984 448.837 452.457 448.253C452.93 447.669 453.517 447.203 454.176 446.888L473.337 390.353L482.766 395.861L460.888 449.888C461.309 451.109 461.297 452.452 460.854 453.664C460.411 454.876 459.569 455.872 458.486 456.464C457.403 457.055 456.155 457.201 454.978 456.873C453.802 456.545 452.779 455.767 452.102 454.685Z" fill="#FFB8B8"/>
<path d="M505.546 465.308C504.919 464.924 504.379 464.397 503.963 463.765C503.548 463.133 503.267 462.411 503.14 461.65C503.013 460.889 503.044 460.108 503.229 459.361C503.415 458.614 503.752 457.92 504.215 457.327L498.279 397.523L509.009 398.048L511.476 456.873C512.355 457.773 512.894 458.986 512.993 460.283C513.091 461.58 512.742 462.871 512.011 463.911C511.28 464.95 510.218 465.667 509.026 465.925C507.835 466.182 506.596 465.963 505.546 465.308Z" fill="#FFB8B8"/>
<path d="M488.428 379.881C494.665 379.881 499.72 374.469 499.72 367.793C499.72 361.117 494.665 355.705 488.428 355.705C482.191 355.705 477.135 361.117 477.135 367.793C477.135 374.469 482.191 379.881 488.428 379.881Z" fill="#FFB8B8"/>
<path d="M505.473 451.707H471.429L471.47 451.424C471.531 451 477.537 408.88 473.107 395.101C472.663 393.747 472.702 392.264 473.217 390.939C473.732 389.614 474.687 388.54 475.898 387.923H475.898C482.23 384.731 494.384 380.801 504.643 390.339C506.152 391.766 507.331 393.549 508.086 395.548C508.841 397.546 509.151 399.705 508.992 401.854L505.473 451.707Z" fill="#502333"/>
<path d="M477.968 415.105L462.64 411.776L469.825 393.551C470.255 391.786 471.321 390.275 472.79 389.35C474.259 388.426 476.011 388.163 477.661 388.619C479.311 389.075 480.724 390.213 481.592 391.783C482.459 393.353 482.709 395.228 482.287 396.995L477.968 415.105Z" fill="#502333"/>
<path d="M497.598 421.285L496.676 398.674C495.978 394.424 498.251 390.405 501.747 389.749C505.243 389.094 508.658 392.042 509.36 396.324L512.823 417.452L497.598 421.285Z" fill="#502333"/>
<path d="M504.341 449C509.819 471.333 510.416 499.728 508.938 530.701L501.582 529.717L488.249 470.656L480.892 530.701L472.617 530.209C470.144 497.711 467.737 469.812 471.697 451.461L504.341 449Z" fill="#2F2E41"/>
<path d="M495.869 377.135C493.762 379.538 489.85 378.248 489.575 374.966C489.554 374.712 489.555 374.455 489.58 374.201C489.721 372.747 490.506 371.427 490.318 369.892C490.275 369.51 490.143 369.146 489.932 368.835C488.253 366.428 484.312 369.911 482.728 367.733C481.757 366.397 482.898 364.294 482.153 362.801C481.169 360.83 478.255 361.802 476.427 360.723C474.394 359.523 474.515 356.183 475.854 354.151C477.486 351.674 480.348 350.352 483.175 350.161C486.001 349.971 488.808 350.789 491.447 351.89C494.445 353.14 497.419 354.869 499.264 357.691C501.507 361.123 501.723 365.737 500.601 369.75C499.918 372.192 497.589 375.174 495.869 377.135Z" fill="#2F2E41"/>
<path d="M593.198 543.757H253.753C253.608 543.756 253.469 543.694 253.367 543.584C253.265 543.474 253.207 543.326 253.207 543.171C253.207 543.015 253.265 542.867 253.367 542.757C253.469 542.647 253.608 542.585 253.753 542.584H593.198C593.343 542.585 593.482 542.647 593.585 542.757C593.687 542.867 593.744 543.015 593.744 543.171C593.744 543.326 593.687 543.474 593.585 543.584C593.482 543.694 593.343 543.756 593.198 543.757Z" fill="#3F3D56"/>
<path d="M422.632 490.038H362.862C362.075 490.043 361.318 489.713 360.758 489.121C360.198 488.529 359.88 487.723 359.874 486.881V344.066C359.88 343.224 360.198 342.418 360.758 341.826C361.318 341.234 362.075 340.904 362.862 340.909H422.632C423.419 340.904 424.176 341.234 424.736 341.826C425.297 342.418 425.615 343.224 425.621 344.066V486.881C425.615 487.723 425.297 488.529 424.736 489.121C424.176 489.713 423.419 490.043 422.632 490.038Z" fill="#E2E2E2"/>
<path d="M425.621 387.119H359.874V388.104H425.621V387.119Z" fill="#0956C6"/>
<path d="M425.851 443.282H360.103V444.266H425.851V443.282Z" fill="#0956C6"/>
<path d="M381.483 340.909H380.563V490.531H381.483V340.909Z" fill="#0956C6"/>
<path d="M404.471 340.909H403.552V490.531H404.471V340.909Z" fill="#0446BA"/>
<defs>
<linearGradient id="paint0_linear" x1="409.904" y1="-160.405" x2="419.775" y2="688.885" gradientUnits="userSpaceOnUse">
<stop stop-color="#CED2DF"/>
<stop offset="1" stop-color="#C4C4C4" stop-opacity="0"/>
</linearGradient>
</defs>
</svg>
